<svg width="25" height="24" viewBox="0 0 25 24" fill="none" xmlns="http://www.w3.org/2000/svg">
<path d="M10.4701 18C10.7378 18 10.9636 17.9079 11.1476 17.7238L16.1571 12.7615C16.3913 12.5356 16.5 12.2929 16.5 12C16.5 11.7071 16.3913 11.4561 16.1655 11.2385L11.1476 6.27615C10.9636 6.09205 10.7378 6 10.4701 6C9.93489 6 9.5 6.42678 9.5 6.96234C9.5 7.23013 9.60872 7.4728 9.80108 7.67364L14.2001 12.0084L9.80108 16.3347C9.60872 16.5272 9.5 16.7699 9.5 17.0377C9.5 17.5732 9.93489 18 10.4701 18Z" fill="#AEAFB4"/>
</svg>
