<svg width="34" height="34" viewBox="0 0 34 34" fill="none" xmlns="http://www.w3.org/2000/svg">
<g opacity="0.3">
<path d="M17 0C26.3888 0 34 7.61116 34 17C34 26.3888 26.3888 34 17 34C7.61116 34 0 26.3888 0 17C0 7.61116 7.61116 0 17 0ZM21.6875 11C21.2452 11 20.8307 11.2604 20.5596 11.7236L15.7803 19.7725L13.3545 16.6309C13.0834 16.2545 12.7119 16.0518 12.2695 16.0518C11.5706 16.052 11.0002 16.6019 11 17.3398C11 17.6728 11.1139 17.9919 11.3564 18.2959L14.5527 22.3057C14.9094 22.7687 15.3234 22.9999 15.8369 23C16.3363 23 16.7791 22.7396 17.0645 22.2764L22.6719 13.1709C22.8288 12.9104 23 12.5632 23 12.2305C23 11.5357 22.4008 11.0001 21.6875 11Z" fill="#33CF69"/>
</g>
</svg>
